# xmcd
# 
# Track frame offsets:
#     212
#     10585
#     22917
#     36745
#     51410
#     61635
#     74797
#     89030
#     99762
#     113500
#     127677
#     137452
#     158347
#     171982
# 
# Disc length: 2454
# 
# Revision: 5
# Processed by: cddbd v1.5.2PL0 Copyright (c) Steve Scherf et al.
# Submitted via: fre:ac v1.1beta1pre3
# 
DISCID=ab09940e
DTITLE=Louis Armstrong - The Best Of A Wonderful World
DYEAR=1989
DGENRE=Jazz
TTITLE0=What A Wonderful World
TTITLE1=When The Saints Go Marching In
TTITLE2=Georgia On My Mind
TTITLE3=Blueberry Hill
TTITLE4=Skokiann
TTITLE5=Moon River
TTITLE6=Down By The River Side
TTITLE7=Hello Dolly
TTITLE8=C'Est Si Bon
TTITLE9=Only You
TTITLE10=I Still Get Jealous
TTITLE11=Jeepers Creepers
TTITLE12=Dream A Little Dream Of Me
TTITLE13=Kokomo
EXTD=
EXTT0=
EXTT1=
EXTT2=
EXTT3=
EXTT4=
EXTT5=
EXTT6=
EXTT7=
EXTT8=
EXTT9=
EXTT10=
EXTT11=
EXTT12=
EXTT13=
PLAYORDER=
